<svg width="49" height="48" viewBox="0 0 49 48" fill="none" xmlns="http://www.w3.org/2000/svg">
<path d="M0.666992 10C0.666992 4.47715 5.14414 0 10.667 0H38.667C44.1898 0 48.667 4.47715 48.667 10V38C48.667 43.5229 44.1898 48 38.667 48H10.667C5.14414 48 0.666992 43.5228 0.666992 38V10Z" fill="#3B81F4"/>
<path d="M24.667 34C25.667 29 32.667 28.4183 32.667 22C32.667 17.5817 29.0853 14 24.667 14C20.2487 14 16.667 17.5817 16.667 22C16.667 28.4183 23.667 29 24.667 34Z" stroke="white" stroke-width="2" stroke-linecap="round" stroke-linejoin="round"/>
<path d="M24.667 25C26.3238 25 27.667 23.6569 27.667 22C27.667 20.3431 26.3238 19 24.667 19C23.0101 19 21.667 20.3431 21.667 22C21.667 23.6569 23.0101 25 24.667 25Z" stroke="white" stroke-width="2" stroke-linecap="round" stroke-linejoin="round"/>
</svg>
