<svg width="49" height="48" viewBox="0 0 49 48" fill="none" xmlns="http://www.w3.org/2000/svg">
<path d="M0.333496 10C0.333496 4.47715 4.81065 0 10.3335 0H38.3335C43.8563 0 48.3335 4.47715 48.3335 10V38C48.3335 43.5229 43.8563 48 38.3335 48H10.3335C4.81065 48 0.333496 43.5228 0.333496 38V10Z" fill="#3B81F4"/>
<path d="M26.0775 14.6336L33.6055 19.5268C33.8715 19.6997 34.0045 19.7861 34.1008 19.9015C34.1862 20.0035 34.2502 20.1216 34.2893 20.2488C34.3335 20.3924 34.3335 20.551 34.3335 20.8683V28.2C34.3335 29.8802 34.3335 30.7202 34.0065 31.362C33.7189 31.9265 33.26 32.3854 32.6955 32.673C32.0537 33 31.2137 33 29.5335 33H19.1335C17.4533 33 16.6133 33 15.9715 32.673C15.407 32.3854 14.9481 31.9265 14.6605 31.362C14.3335 30.7202 14.3335 29.8802 14.3335 28.2V20.8683C14.3335 20.551 14.3335 20.3924 14.3777 20.2488C14.4168 20.1216 14.4808 20.0035 14.5661 19.9015C14.6625 19.7861 14.7955 19.6997 15.0615 19.5268L22.5895 14.6336M26.0775 14.6336C25.4462 14.2233 25.1306 14.0181 24.7905 13.9383C24.4899 13.8677 24.1771 13.8677 23.8765 13.9383C23.5364 14.0181 23.2208 14.2233 22.5895 14.6336M26.0775 14.6336L32.2696 18.6585C32.9575 19.1056 33.3014 19.3291 33.4205 19.6126C33.5246 19.8604 33.5246 20.1396 33.4205 20.3874C33.3014 20.6709 32.9575 20.8944 32.2696 21.3415L26.0775 25.3664C25.4462 25.7767 25.1306 25.9819 24.7905 26.0617C24.4899 26.1323 24.1771 26.1323 23.8765 26.0617C23.5364 25.9819 23.2208 25.7767 22.5895 25.3664L16.3974 21.3415C15.7095 20.8944 15.3656 20.6709 15.2465 20.3874C15.1424 20.1396 15.1424 19.8604 15.2465 19.6126C15.3656 19.3291 15.7095 19.1056 16.3974 18.6585L22.5895 14.6336M33.8335 31L27.1907 25M21.4763 25L14.8335 31" stroke="white" stroke-width="2" stroke-linecap="round" stroke-linejoin="round"/>
</svg>
